<?xml version="1.0" encoding="utf-8"?>
<!-- Generator: Adobe Illustrator 21.0.0, SVG Export Plug-In . SVG Version: 6.00 Build 0)  -->
<svg version="1.1" id="logo" xmlns="http://www.w3.org/2000/svg" xmlns:xlink="http://www.w3.org/1999/xlink" x="0px" y="0px"
	 viewBox="0 0 35.2 9.4" style="enable-background:new 0 0 35.2 9.4;" xml:space="preserve">
<style type="text/css">
	.st0{fill:#FFFFFF;}
</style>
<g>
	<path class="st0" d="M10.7,1C10.9,1,11,0.9,11,0.7V0.4c0-0.2-0.1-0.3-0.3-0.3H6.4c-0.2,0-0.3,0.1-0.3,0.3v0.3C6.1,0.9,6.2,1,6.4,1
		h0.8v2.8H3.8V1h0.8c0.2,0,0.3-0.1,0.3-0.3V0.4c0-0.2-0.1-0.3-0.3-0.3H0.3C0.1,0.1,0,0.2,0,0.4v0.3C0,0.9,0.1,1,0.3,1h0.8v7.5H0.3
		C0.1,8.5,0,8.6,0,8.8v0.3c0,0.2,0.1,0.3,0.3,0.3h4.3c0.2,0,0.3-0.1,0.3-0.3V8.8c0-0.2-0.1-0.3-0.3-0.3H3.8V4.9h3.4v3.6H6.4
		c-0.2,0-0.3,0.1-0.3,0.3v0.3c0,0.2,0.1,0.3,0.3,0.3h4.3c0.2,0,0.3-0.1,0.3-0.3V8.8c0-0.2-0.1-0.3-0.3-0.3H9.9V1H10.7z M2.5,9
		C2.2,9,2,8.8,2,8.5S2.2,8,2.5,8S3,8.2,3,8.5S2.8,9,2.5,9z M2.5,1.4C2.2,1.4,2,1.2,2,0.9s0.2-0.5,0.5-0.5S3,0.6,3,0.9
		S2.8,1.4,2.5,1.4z"/>
	<path class="st0" d="M21.4,8.5h-0.8c0,0,0,0-0.1-0.1c-0.4-1.1-0.9-2.2-1.3-3.3c-0.6-1.6-1.3-3.2-2-4.8C17.1,0.1,17,0,16.9,0.1
		c-0.3,0-0.7,0-1,0h-0.1l0,0l-0.2,0.1l0,0c-0.1,0-0.1,0.1-0.1,0.2c-0.1,0.3-0.2,0.6-0.4,0.9c-0.6,1.5-1.3,3.1-1.9,4.6
		c-0.1,0.3-0.2,0.6-0.4,0.8c-0.2,0.5-0.4,1-0.6,1.4c0,0.1-0.1,0.2-0.2,0.3l0,0h-0.4c-0.2,0-0.3,0.1-0.3,0.3V9c0,0.2,0.1,0.3,0.3,0.3
		h2.3c0.2,0,0.3-0.1,0.3-0.3V8.7c0-0.2-0.1-0.3-0.3-0.3h-0.8c0.2-0.5,0.4-1,0.6-1.4c0.1-0.2,0.1-0.2,0.2-0.3l0,0h3.3l0.7,1.7h-1
		c-0.2,0-0.3,0.1-0.3,0.3V9c0,0.2,0.1,0.3,0.3,0.3h4.3c0.2,0,0.3-0.1,0.3-0.3V8.7C21.7,8.6,21.6,8.5,21.4,8.5z M16.4,0.3
		c0.3,0,0.5,0.2,0.5,0.5s-0.2,0.5-0.5,0.5s-0.5-0.2-0.5-0.5S16.1,0.3,16.4,0.3z M14.3,5.9c0.4-1.1,0.9-2.2,1.4-3.3
		c0,0.1,0,0.1,0.1,0.2V2.7l1.3,3.2L14.3,5.9L14.3,5.9z M19.4,9c-0.3,0-0.5-0.2-0.5-0.5S19.1,8,19.4,8s0.5,0.2,0.5,0.5S19.7,9,19.4,9
		z"/>
	<path class="st0" d="M34.9,1c0.2,0,0.3-0.1,0.3-0.3V0.4c0-0.2-0.1-0.3-0.3-0.3h-3.3c0,0,0,0-0.1,0c-0.2,0-0.3,0.1-0.3,0.3
		C31.1,0.6,31,0.8,30.9,1c-0.4,0.8-0.7,1.7-1.1,2.5l-0.7,1.6L29,5.4l-0.2,0.3l-2.2-4.8c-0.1-0.2-0.2-0.4-0.3-0.6
		C26.2,0.2,26.1,0,26,0c-0.3,0-0.6,0-0.9,0h-2.7h-0.1c-0.1,0-0.2,0.1-0.2,0.3v0.3c0,0.2,0.1,0.3,0.3,0.3h1v7.5h-1
		c-0.1,0-0.3,0.1-0.3,0.2V9c0,0.1,0.1,0.3,0.3,0.3h2.9c0.1,0,0.3-0.1,0.3-0.3V8.6c0-0.1-0.1-0.2-0.3-0.2h-1V1.8l0,0l2,4.4L27,7.7
		l0,0c0.1,0.1,0.2,0.1,0.6,0.1c0.3,0,0.5,0,0.8,0c0.2,0,0.3-0.1,0.4-0.3C28.9,7.2,29,7,29.2,6.7c0.4-0.9,0.8-1.8,1.2-2.6
		c0.3-0.8,0.7-1.5,1-2.3c0,0.1,0,0.1,0,0.2V1.9v6.3h-0.9c-0.2,0-0.3,0.1-0.3,0.3v0.3c0,0.2,0.1,0.3,0.3,0.3h0.9l0,0h2.5l0,0h0.9
		c0.2,0,0.3-0.1,0.3-0.3V8.5c0-0.2-0.1-0.3-0.3-0.3h-0.9V0.7h1V1z M32.9,9c-0.3,0-0.5-0.2-0.5-0.5S32.6,8,32.9,8s0.5,0.2,0.5,0.5
		S33.2,9,32.9,9z M32.9,1.4c-0.3,0-0.5-0.2-0.5-0.5s0.2-0.5,0.5-0.5s0.5,0.2,0.5,0.5S33.2,1.4,32.9,1.4z"/>
</g>
</svg>
